<mxfile host="app.diagrams.net" modified="2023-05-07T20:51:56.038Z" agent="Mozilla/5.0 (Windows NT 10.0; Win64; x64) AppleWebKit/537.36 (KHTML, like Gecko) Chrome/112.0.0.0 Safari/537.36" etag="kk372GVkadzxNQcenksl" version="21.2.9" type="device">
  <diagram id="C5RBs43oDa-KdzZeNtuy" name="Page-1">
    <mxGraphModel dx="1434" dy="1925" grid="1" gridSize="10" guides="1" tooltips="1" connect="1" arrows="1" fold="1" page="1" pageScale="1" pageWidth="827" pageHeight="1169" math="0" shadow="0">
      <root>
        <mxCell id="WIyWlLk6GJQsqaUBKTNV-0" />
        <mxCell id="WIyWlLk6GJQsqaUBKTNV-1" parent="WIyWlLk6GJQsqaUBKTNV-0" />
        <mxCell id="gQbP0oKlp9GGneDDA7gV-100" value="" style="rounded=0;whiteSpace=wrap;html=1;" vertex="1" parent="WIyWlLk6GJQsqaUBKTNV-1">
          <mxGeometry y="-30" width="820" height="1050" as="geometry" />
        </mxCell>
        <mxCell id="gQbP0oKlp9GGneDDA7gV-1" value="" style="edgeStyle=orthogonalEdgeStyle;rounded=0;orthogonalLoop=1;jettySize=auto;html=1;" edge="1" parent="WIyWlLk6GJQsqaUBKTNV-1" source="WIyWlLk6GJQsqaUBKTNV-3" target="gQbP0oKlp9GGneDDA7gV-0">
          <mxGeometry relative="1" as="geometry" />
        </mxCell>
        <mxCell id="WIyWlLk6GJQsqaUBKTNV-3" value="ESP8266FSAutoConnect" style="rounded=1;whiteSpace=wrap;html=1;fontSize=12;glass=0;strokeWidth=1;shadow=0;fillColor=#f5f5f5;strokeColor=#666666;fontColor=#333333;" parent="WIyWlLk6GJQsqaUBKTNV-1" vertex="1">
          <mxGeometry x="30" y="40" width="170" height="40" as="geometry" />
        </mxCell>
        <mxCell id="gQbP0oKlp9GGneDDA7gV-6" value="" style="edgeStyle=orthogonalEdgeStyle;rounded=0;orthogonalLoop=1;jettySize=auto;html=1;" edge="1" parent="WIyWlLk6GJQsqaUBKTNV-1" source="gQbP0oKlp9GGneDDA7gV-0" target="gQbP0oKlp9GGneDDA7gV-5">
          <mxGeometry relative="1" as="geometry" />
        </mxCell>
        <mxCell id="gQbP0oKlp9GGneDDA7gV-0" value="Initialize an object &quot;EFAC&quot; pass in the port for the AP server" style="whiteSpace=wrap;html=1;rounded=1;glass=0;strokeWidth=1;shadow=0;fillColor=#f5f5f5;fontColor=#333333;strokeColor=#666666;" vertex="1" parent="WIyWlLk6GJQsqaUBKTNV-1">
          <mxGeometry x="32.5" y="110" width="165" height="60" as="geometry" />
        </mxCell>
        <mxCell id="gQbP0oKlp9GGneDDA7gV-8" value="" style="edgeStyle=orthogonalEdgeStyle;rounded=0;orthogonalLoop=1;jettySize=auto;html=1;" edge="1" parent="WIyWlLk6GJQsqaUBKTNV-1" source="gQbP0oKlp9GGneDDA7gV-5" target="gQbP0oKlp9GGneDDA7gV-7">
          <mxGeometry relative="1" as="geometry" />
        </mxCell>
        <mxCell id="gQbP0oKlp9GGneDDA7gV-5" value="Optionally create an AsyncWebServer object and attach the various event handlers&amp;nbsp;" style="whiteSpace=wrap;html=1;rounded=1;glass=0;strokeWidth=1;shadow=0;fillColor=#f5f5f5;fontColor=#333333;strokeColor=#666666;" vertex="1" parent="WIyWlLk6GJQsqaUBKTNV-1">
          <mxGeometry x="37.5" y="200" width="155" height="60" as="geometry" />
        </mxCell>
        <mxCell id="gQbP0oKlp9GGneDDA7gV-10" style="edgeStyle=orthogonalEdgeStyle;rounded=0;orthogonalLoop=1;jettySize=auto;html=1;exitX=0.5;exitY=1;exitDx=0;exitDy=0;entryX=0.384;entryY=-0.006;entryDx=0;entryDy=0;entryPerimeter=0;" edge="1" parent="WIyWlLk6GJQsqaUBKTNV-1" source="gQbP0oKlp9GGneDDA7gV-7" target="gQbP0oKlp9GGneDDA7gV-9">
          <mxGeometry relative="1" as="geometry" />
        </mxCell>
        <mxCell id="gQbP0oKlp9GGneDDA7gV-7" value="EFAC.autoConnect(address of the optional server or NULL incase no server)" style="whiteSpace=wrap;html=1;rounded=1;glass=0;strokeWidth=1;shadow=0;fillColor=#f5f5f5;fontColor=#333333;strokeColor=#666666;" vertex="1" parent="WIyWlLk6GJQsqaUBKTNV-1">
          <mxGeometry x="27.5" y="290" width="175" height="60" as="geometry" />
        </mxCell>
        <mxCell id="gQbP0oKlp9GGneDDA7gV-33" style="edgeStyle=orthogonalEdgeStyle;rounded=0;orthogonalLoop=1;jettySize=auto;html=1;exitX=0.5;exitY=1;exitDx=0;exitDy=0;entryX=0.5;entryY=0;entryDx=0;entryDy=0;" edge="1" parent="WIyWlLk6GJQsqaUBKTNV-1" source="gQbP0oKlp9GGneDDA7gV-9" target="gQbP0oKlp9GGneDDA7gV-32">
          <mxGeometry relative="1" as="geometry" />
        </mxCell>
        <mxCell id="gQbP0oKlp9GGneDDA7gV-9" value="" style="rounded=1;whiteSpace=wrap;html=1;dashed=1;dashPattern=1 4;fillColor=#dae8fc;strokeColor=#6c8ebf;" vertex="1" parent="WIyWlLk6GJQsqaUBKTNV-1">
          <mxGeometry x="20" y="370" width="250" height="510" as="geometry" />
        </mxCell>
        <mxCell id="gQbP0oKlp9GGneDDA7gV-11" value="" style="rounded=1;whiteSpace=wrap;html=1;dashed=1;fillColor=#d5e8d4;strokeColor=#82b366;" vertex="1" parent="WIyWlLk6GJQsqaUBKTNV-1">
          <mxGeometry x="39" y="410" width="210" height="170" as="geometry" />
        </mxCell>
        <mxCell id="gQbP0oKlp9GGneDDA7gV-12" value="WiFi Events Initialization" style="text;html=1;strokeColor=#d6b656;fillColor=#fff2cc;align=center;verticalAlign=middle;whiteSpace=wrap;rounded=0;" vertex="1" parent="WIyWlLk6GJQsqaUBKTNV-1">
          <mxGeometry x="75.88" y="370" width="140" height="30" as="geometry" />
        </mxCell>
        <mxCell id="gQbP0oKlp9GGneDDA7gV-17" style="edgeStyle=orthogonalEdgeStyle;rounded=0;orthogonalLoop=1;jettySize=auto;html=1;exitX=0.5;exitY=1;exitDx=0;exitDy=0;entryX=0.5;entryY=0;entryDx=0;entryDy=0;" edge="1" parent="WIyWlLk6GJQsqaUBKTNV-1" source="gQbP0oKlp9GGneDDA7gV-14" target="gQbP0oKlp9GGneDDA7gV-16">
          <mxGeometry relative="1" as="geometry" />
        </mxCell>
        <mxCell id="gQbP0oKlp9GGneDDA7gV-14" value="main_server &lt;br&gt;is not NULL" style="rhombus;whiteSpace=wrap;html=1;" vertex="1" parent="WIyWlLk6GJQsqaUBKTNV-1">
          <mxGeometry x="86.5" y="440" width="118.75" height="70" as="geometry" />
        </mxCell>
        <mxCell id="gQbP0oKlp9GGneDDA7gV-15" value="Connected to an AP and got IP" style="text;html=1;strokeColor=none;fillColor=none;align=center;verticalAlign=middle;whiteSpace=wrap;rounded=0;" vertex="1" parent="WIyWlLk6GJQsqaUBKTNV-1">
          <mxGeometry x="58.379999999999995" y="410" width="175" height="30" as="geometry" />
        </mxCell>
        <mxCell id="gQbP0oKlp9GGneDDA7gV-16" value="start&amp;nbsp; main_server" style="rounded=1;whiteSpace=wrap;html=1;" vertex="1" parent="WIyWlLk6GJQsqaUBKTNV-1">
          <mxGeometry x="86.5" y="535" width="120" height="35" as="geometry" />
        </mxCell>
        <mxCell id="gQbP0oKlp9GGneDDA7gV-18" value="" style="rounded=1;whiteSpace=wrap;html=1;dashed=1;fillColor=#f8cecc;strokeColor=#b85450;" vertex="1" parent="WIyWlLk6GJQsqaUBKTNV-1">
          <mxGeometry x="40.88" y="590" width="210" height="270" as="geometry" />
        </mxCell>
        <mxCell id="gQbP0oKlp9GGneDDA7gV-19" value="Disconnected from AP" style="text;html=1;strokeColor=none;fillColor=none;align=center;verticalAlign=middle;whiteSpace=wrap;rounded=0;" vertex="1" parent="WIyWlLk6GJQsqaUBKTNV-1">
          <mxGeometry x="60.88" y="590" width="175" height="30" as="geometry" />
        </mxCell>
        <mxCell id="gQbP0oKlp9GGneDDA7gV-23" style="edgeStyle=orthogonalEdgeStyle;rounded=0;orthogonalLoop=1;jettySize=auto;html=1;exitX=0.5;exitY=1;exitDx=0;exitDy=0;entryX=0.5;entryY=0;entryDx=0;entryDy=0;" edge="1" parent="WIyWlLk6GJQsqaUBKTNV-1" source="gQbP0oKlp9GGneDDA7gV-20" target="gQbP0oKlp9GGneDDA7gV-21">
          <mxGeometry relative="1" as="geometry" />
        </mxCell>
        <mxCell id="gQbP0oKlp9GGneDDA7gV-31" style="edgeStyle=orthogonalEdgeStyle;rounded=0;orthogonalLoop=1;jettySize=auto;html=1;exitX=1;exitY=0.5;exitDx=0;exitDy=0;entryX=1;entryY=0.5;entryDx=0;entryDy=0;" edge="1" parent="WIyWlLk6GJQsqaUBKTNV-1" source="gQbP0oKlp9GGneDDA7gV-20" target="gQbP0oKlp9GGneDDA7gV-29">
          <mxGeometry relative="1" as="geometry" />
        </mxCell>
        <mxCell id="gQbP0oKlp9GGneDDA7gV-20" value="num_of_retries &amp;lt; 5" style="rhombus;whiteSpace=wrap;html=1;" vertex="1" parent="WIyWlLk6GJQsqaUBKTNV-1">
          <mxGeometry x="80.88" y="620" width="130" height="70" as="geometry" />
        </mxCell>
        <mxCell id="gQbP0oKlp9GGneDDA7gV-28" style="edgeStyle=orthogonalEdgeStyle;rounded=0;orthogonalLoop=1;jettySize=auto;html=1;exitX=0.5;exitY=1;exitDx=0;exitDy=0;entryX=0.5;entryY=0;entryDx=0;entryDy=0;" edge="1" parent="WIyWlLk6GJQsqaUBKTNV-1" source="gQbP0oKlp9GGneDDA7gV-21" target="gQbP0oKlp9GGneDDA7gV-26">
          <mxGeometry relative="1" as="geometry" />
        </mxCell>
        <mxCell id="gQbP0oKlp9GGneDDA7gV-21" value="connect to AP" style="rounded=1;whiteSpace=wrap;html=1;" vertex="1" parent="WIyWlLk6GJQsqaUBKTNV-1">
          <mxGeometry x="85.88" y="710" width="120" height="30" as="geometry" />
        </mxCell>
        <mxCell id="gQbP0oKlp9GGneDDA7gV-22" value="True" style="text;html=1;strokeColor=none;fillColor=none;align=center;verticalAlign=middle;whiteSpace=wrap;rounded=0;" vertex="1" parent="WIyWlLk6GJQsqaUBKTNV-1">
          <mxGeometry x="139" y="505" width="60" height="30" as="geometry" />
        </mxCell>
        <mxCell id="gQbP0oKlp9GGneDDA7gV-26" value="num_of_retries +=1" style="rounded=1;whiteSpace=wrap;html=1;" vertex="1" parent="WIyWlLk6GJQsqaUBKTNV-1">
          <mxGeometry x="85.88" y="760" width="120" height="30" as="geometry" />
        </mxCell>
        <mxCell id="gQbP0oKlp9GGneDDA7gV-29" value="start AP server" style="rounded=1;whiteSpace=wrap;html=1;" vertex="1" parent="WIyWlLk6GJQsqaUBKTNV-1">
          <mxGeometry x="87.13" y="810" width="120" height="30" as="geometry" />
        </mxCell>
        <mxCell id="gQbP0oKlp9GGneDDA7gV-30" value="True" style="text;html=1;strokeColor=none;fillColor=none;align=center;verticalAlign=middle;whiteSpace=wrap;rounded=0;" vertex="1" parent="WIyWlLk6GJQsqaUBKTNV-1">
          <mxGeometry x="145.88" y="680" width="60" height="30" as="geometry" />
        </mxCell>
        <mxCell id="gQbP0oKlp9GGneDDA7gV-35" style="edgeStyle=orthogonalEdgeStyle;rounded=0;orthogonalLoop=1;jettySize=auto;html=1;exitX=0.5;exitY=1;exitDx=0;exitDy=0;entryX=0.5;entryY=0;entryDx=0;entryDy=0;" edge="1" parent="WIyWlLk6GJQsqaUBKTNV-1" source="gQbP0oKlp9GGneDDA7gV-32" target="gQbP0oKlp9GGneDDA7gV-34">
          <mxGeometry relative="1" as="geometry" />
        </mxCell>
        <mxCell id="gQbP0oKlp9GGneDDA7gV-32" value="AP server definition section" style="rounded=1;whiteSpace=wrap;html=1;fillColor=#f5f5f5;fontColor=#333333;strokeColor=#666666;" vertex="1" parent="WIyWlLk6GJQsqaUBKTNV-1">
          <mxGeometry x="54.5" y="900" width="181" height="40" as="geometry" />
        </mxCell>
        <mxCell id="gQbP0oKlp9GGneDDA7gV-34" value="A" style="ellipse;whiteSpace=wrap;html=1;aspect=fixed;fillColor=#ffe6cc;strokeColor=#d79b00;" vertex="1" parent="WIyWlLk6GJQsqaUBKTNV-1">
          <mxGeometry x="124" y="960" width="40" height="40" as="geometry" />
        </mxCell>
        <mxCell id="gQbP0oKlp9GGneDDA7gV-39" style="edgeStyle=orthogonalEdgeStyle;rounded=0;orthogonalLoop=1;jettySize=auto;html=1;exitX=0.5;exitY=1;exitDx=0;exitDy=0;entryX=0.5;entryY=0;entryDx=0;entryDy=0;" edge="1" parent="WIyWlLk6GJQsqaUBKTNV-1" source="gQbP0oKlp9GGneDDA7gV-36" target="gQbP0oKlp9GGneDDA7gV-38">
          <mxGeometry relative="1" as="geometry" />
        </mxCell>
        <mxCell id="gQbP0oKlp9GGneDDA7gV-36" value="A" style="ellipse;whiteSpace=wrap;html=1;aspect=fixed;fillColor=#ffe6cc;strokeColor=#d79b00;" vertex="1" parent="WIyWlLk6GJQsqaUBKTNV-1">
          <mxGeometry x="400" y="40" width="40" height="40" as="geometry" />
        </mxCell>
        <mxCell id="gQbP0oKlp9GGneDDA7gV-42" style="edgeStyle=orthogonalEdgeStyle;rounded=0;orthogonalLoop=1;jettySize=auto;html=1;exitX=0.5;exitY=1;exitDx=0;exitDy=0;entryX=0.5;entryY=0;entryDx=0;entryDy=0;" edge="1" parent="WIyWlLk6GJQsqaUBKTNV-1" source="gQbP0oKlp9GGneDDA7gV-38" target="gQbP0oKlp9GGneDDA7gV-40">
          <mxGeometry relative="1" as="geometry" />
        </mxCell>
        <mxCell id="gQbP0oKlp9GGneDDA7gV-48" style="edgeStyle=orthogonalEdgeStyle;rounded=0;orthogonalLoop=1;jettySize=auto;html=1;exitX=1;exitY=0.5;exitDx=0;exitDy=0;entryX=1;entryY=0.5;entryDx=0;entryDy=0;" edge="1" parent="WIyWlLk6GJQsqaUBKTNV-1" source="gQbP0oKlp9GGneDDA7gV-38" target="gQbP0oKlp9GGneDDA7gV-47">
          <mxGeometry relative="1" as="geometry">
            <Array as="points">
              <mxPoint x="550" y="155" />
              <mxPoint x="550" y="365" />
            </Array>
          </mxGeometry>
        </mxCell>
        <mxCell id="gQbP0oKlp9GGneDDA7gV-54" style="edgeStyle=orthogonalEdgeStyle;rounded=0;orthogonalLoop=1;jettySize=auto;html=1;exitX=0;exitY=0.5;exitDx=0;exitDy=0;entryX=0;entryY=0.5;entryDx=0;entryDy=0;" edge="1" parent="WIyWlLk6GJQsqaUBKTNV-1" source="gQbP0oKlp9GGneDDA7gV-38" target="gQbP0oKlp9GGneDDA7gV-53">
          <mxGeometry relative="1" as="geometry">
            <Array as="points">
              <mxPoint x="300" y="155" />
              <mxPoint x="300" y="415" />
            </Array>
          </mxGeometry>
        </mxCell>
        <mxCell id="gQbP0oKlp9GGneDDA7gV-38" value="LittleFS got &lt;br&gt;STA and AP &lt;br&gt;credentials" style="rhombus;whiteSpace=wrap;html=1;fillColor=#f5f5f5;fontColor=#333333;strokeColor=#666666;" vertex="1" parent="WIyWlLk6GJQsqaUBKTNV-1">
          <mxGeometry x="350" y="100" width="140" height="110" as="geometry" />
        </mxCell>
        <mxCell id="gQbP0oKlp9GGneDDA7gV-50" style="edgeStyle=orthogonalEdgeStyle;rounded=0;orthogonalLoop=1;jettySize=auto;html=1;exitX=0.5;exitY=1;exitDx=0;exitDy=0;" edge="1" parent="WIyWlLk6GJQsqaUBKTNV-1" source="gQbP0oKlp9GGneDDA7gV-40" target="gQbP0oKlp9GGneDDA7gV-47">
          <mxGeometry relative="1" as="geometry" />
        </mxCell>
        <mxCell id="gQbP0oKlp9GGneDDA7gV-40" value="Use default AP credentials&lt;br&gt;(ESP8266FSAutoConnect,&amp;nbsp;&lt;br&gt;12345678&lt;span style=&quot;background-color: initial;&quot;&gt;)&lt;/span&gt;" style="rounded=1;whiteSpace=wrap;html=1;fillColor=#f5f5f5;fontColor=#333333;strokeColor=#666666;" vertex="1" parent="WIyWlLk6GJQsqaUBKTNV-1">
          <mxGeometry x="325" y="250" width="190" height="70" as="geometry" />
        </mxCell>
        <mxCell id="gQbP0oKlp9GGneDDA7gV-41" value="False" style="text;html=1;strokeColor=none;fillColor=none;align=center;verticalAlign=middle;whiteSpace=wrap;rounded=0;" vertex="1" parent="WIyWlLk6GJQsqaUBKTNV-1">
          <mxGeometry x="197.5" y="630" width="60" height="30" as="geometry" />
        </mxCell>
        <mxCell id="gQbP0oKlp9GGneDDA7gV-43" value="Got No Credentials / no file" style="text;html=1;strokeColor=none;fillColor=none;align=center;verticalAlign=middle;whiteSpace=wrap;rounded=0;" vertex="1" parent="WIyWlLk6GJQsqaUBKTNV-1">
          <mxGeometry x="430" y="215" width="110" height="30" as="geometry" />
        </mxCell>
        <mxCell id="gQbP0oKlp9GGneDDA7gV-47" value="start AP server" style="rounded=1;whiteSpace=wrap;html=1;fillColor=#f5f5f5;fontColor=#333333;strokeColor=#666666;" vertex="1" parent="WIyWlLk6GJQsqaUBKTNV-1">
          <mxGeometry x="360" y="350" width="120" height="30" as="geometry" />
        </mxCell>
        <mxCell id="gQbP0oKlp9GGneDDA7gV-51" value="Got only AP credentials" style="text;html=1;strokeColor=none;fillColor=none;align=center;verticalAlign=middle;whiteSpace=wrap;rounded=0;" vertex="1" parent="WIyWlLk6GJQsqaUBKTNV-1">
          <mxGeometry x="470" y="110" width="110" height="40" as="geometry" />
        </mxCell>
        <mxCell id="gQbP0oKlp9GGneDDA7gV-53" value="connect to AP" style="rounded=1;whiteSpace=wrap;html=1;fillColor=#f5f5f5;fontColor=#333333;strokeColor=#666666;" vertex="1" parent="WIyWlLk6GJQsqaUBKTNV-1">
          <mxGeometry x="360" y="400" width="120" height="30" as="geometry" />
        </mxCell>
        <mxCell id="gQbP0oKlp9GGneDDA7gV-55" value="Got STA&amp;nbsp; credentials" style="text;html=1;strokeColor=none;fillColor=none;align=center;verticalAlign=middle;whiteSpace=wrap;rounded=0;" vertex="1" parent="WIyWlLk6GJQsqaUBKTNV-1">
          <mxGeometry x="290" y="115" width="60" height="30" as="geometry" />
        </mxCell>
        <mxCell id="gQbP0oKlp9GGneDDA7gV-56" value="" style="rounded=0;whiteSpace=wrap;html=1;dashed=1;strokeColor=#6c8ebf;fillColor=#dae8fc;" vertex="1" parent="WIyWlLk6GJQsqaUBKTNV-1">
          <mxGeometry x="300" y="460" width="490" height="540" as="geometry" />
        </mxCell>
        <mxCell id="gQbP0oKlp9GGneDDA7gV-57" value="AP server definition section" style="text;html=1;strokeColor=#d6b656;fillColor=#fff2cc;align=center;verticalAlign=middle;whiteSpace=wrap;rounded=0;" vertex="1" parent="WIyWlLk6GJQsqaUBKTNV-1">
          <mxGeometry x="450" y="460" width="190" height="30" as="geometry" />
        </mxCell>
        <mxCell id="gQbP0oKlp9GGneDDA7gV-58" value="" style="rounded=0;whiteSpace=wrap;html=1;" vertex="1" parent="WIyWlLk6GJQsqaUBKTNV-1">
          <mxGeometry x="320" y="500" width="450" height="100" as="geometry" />
        </mxCell>
        <mxCell id="gQbP0oKlp9GGneDDA7gV-59" value="on uri = /, method = HTTP_GET" style="text;html=1;strokeColor=#82b366;fillColor=#d5e8d4;align=center;verticalAlign=middle;whiteSpace=wrap;rounded=0;" vertex="1" parent="WIyWlLk6GJQsqaUBKTNV-1">
          <mxGeometry x="461.25" y="500" width="187.5" height="30" as="geometry" />
        </mxCell>
        <mxCell id="gQbP0oKlp9GGneDDA7gV-60" value="" style="rounded=0;whiteSpace=wrap;html=1;glass=0;" vertex="1" parent="WIyWlLk6GJQsqaUBKTNV-1">
          <mxGeometry x="320" y="610" width="450" height="370" as="geometry" />
        </mxCell>
        <mxCell id="gQbP0oKlp9GGneDDA7gV-61" value="on uri = /update, method = HTTP_POST" style="text;html=1;strokeColor=#82b366;fillColor=#d5e8d4;align=center;verticalAlign=middle;whiteSpace=wrap;rounded=0;" vertex="1" parent="WIyWlLk6GJQsqaUBKTNV-1">
          <mxGeometry x="438.75" y="610" width="230" height="30" as="geometry" />
        </mxCell>
        <mxCell id="gQbP0oKlp9GGneDDA7gV-62" value="serve webpage/ web interface from PROGMEM" style="rounded=1;whiteSpace=wrap;html=1;" vertex="1" parent="WIyWlLk6GJQsqaUBKTNV-1">
          <mxGeometry x="463.75" y="545" width="185" height="40" as="geometry" />
        </mxCell>
        <mxCell id="gQbP0oKlp9GGneDDA7gV-68" style="edgeStyle=orthogonalEdgeStyle;rounded=0;orthogonalLoop=1;jettySize=auto;html=1;exitX=0.5;exitY=1;exitDx=0;exitDy=0;entryX=0.5;entryY=0;entryDx=0;entryDy=0;" edge="1" parent="WIyWlLk6GJQsqaUBKTNV-1" source="gQbP0oKlp9GGneDDA7gV-63" target="gQbP0oKlp9GGneDDA7gV-67">
          <mxGeometry relative="1" as="geometry" />
        </mxCell>
        <mxCell id="gQbP0oKlp9GGneDDA7gV-63" value="check request data" style="rounded=1;whiteSpace=wrap;html=1;" vertex="1" parent="WIyWlLk6GJQsqaUBKTNV-1">
          <mxGeometry x="490" y="650" width="120" height="30" as="geometry" />
        </mxCell>
        <mxCell id="gQbP0oKlp9GGneDDA7gV-76" style="edgeStyle=orthogonalEdgeStyle;rounded=0;orthogonalLoop=1;jettySize=auto;html=1;exitX=0;exitY=0.5;exitDx=0;exitDy=0;entryX=1;entryY=0.5;entryDx=0;entryDy=0;" edge="1" parent="WIyWlLk6GJQsqaUBKTNV-1" source="gQbP0oKlp9GGneDDA7gV-66" target="gQbP0oKlp9GGneDDA7gV-70">
          <mxGeometry relative="1" as="geometry" />
        </mxCell>
        <mxCell id="gQbP0oKlp9GGneDDA7gV-78" style="edgeStyle=orthogonalEdgeStyle;rounded=0;orthogonalLoop=1;jettySize=auto;html=1;exitX=1;exitY=0.5;exitDx=0;exitDy=0;entryX=0;entryY=0.5;entryDx=0;entryDy=0;" edge="1" parent="WIyWlLk6GJQsqaUBKTNV-1" source="gQbP0oKlp9GGneDDA7gV-66" target="gQbP0oKlp9GGneDDA7gV-72">
          <mxGeometry relative="1" as="geometry" />
        </mxCell>
        <mxCell id="gQbP0oKlp9GGneDDA7gV-66" value="type" style="rhombus;whiteSpace=wrap;html=1;" vertex="1" parent="WIyWlLk6GJQsqaUBKTNV-1">
          <mxGeometry x="500" y="750" width="100" height="65" as="geometry" />
        </mxCell>
        <mxCell id="gQbP0oKlp9GGneDDA7gV-69" style="edgeStyle=orthogonalEdgeStyle;rounded=0;orthogonalLoop=1;jettySize=auto;html=1;exitX=0.5;exitY=1;exitDx=0;exitDy=0;entryX=0.5;entryY=0;entryDx=0;entryDy=0;" edge="1" parent="WIyWlLk6GJQsqaUBKTNV-1" source="gQbP0oKlp9GGneDDA7gV-67" target="gQbP0oKlp9GGneDDA7gV-66">
          <mxGeometry relative="1" as="geometry" />
        </mxCell>
        <mxCell id="gQbP0oKlp9GGneDDA7gV-67" value="Parse body and get SSID, Password" style="rounded=1;whiteSpace=wrap;html=1;" vertex="1" parent="WIyWlLk6GJQsqaUBKTNV-1">
          <mxGeometry x="490" y="700" width="120" height="30" as="geometry" />
        </mxCell>
        <mxCell id="gQbP0oKlp9GGneDDA7gV-80" style="edgeStyle=orthogonalEdgeStyle;rounded=0;orthogonalLoop=1;jettySize=auto;html=1;exitX=0.5;exitY=1;exitDx=0;exitDy=0;entryX=0.5;entryY=0;entryDx=0;entryDy=0;" edge="1" parent="WIyWlLk6GJQsqaUBKTNV-1" source="gQbP0oKlp9GGneDDA7gV-70" target="gQbP0oKlp9GGneDDA7gV-71">
          <mxGeometry relative="1" as="geometry" />
        </mxCell>
        <mxCell id="gQbP0oKlp9GGneDDA7gV-70" value="save credentials" style="rounded=1;whiteSpace=wrap;html=1;" vertex="1" parent="WIyWlLk6GJQsqaUBKTNV-1">
          <mxGeometry x="350" y="767.5" width="120" height="30" as="geometry" />
        </mxCell>
        <mxCell id="gQbP0oKlp9GGneDDA7gV-81" style="edgeStyle=orthogonalEdgeStyle;rounded=0;orthogonalLoop=1;jettySize=auto;html=1;exitX=0.5;exitY=1;exitDx=0;exitDy=0;entryX=0.5;entryY=0;entryDx=0;entryDy=0;" edge="1" parent="WIyWlLk6GJQsqaUBKTNV-1" source="gQbP0oKlp9GGneDDA7gV-71" target="gQbP0oKlp9GGneDDA7gV-74">
          <mxGeometry relative="1" as="geometry" />
        </mxCell>
        <mxCell id="gQbP0oKlp9GGneDDA7gV-71" value="Assign connection flags to enable connection to an AP" style="rounded=1;whiteSpace=wrap;html=1;" vertex="1" parent="WIyWlLk6GJQsqaUBKTNV-1">
          <mxGeometry x="340" y="820" width="140" height="60" as="geometry" />
        </mxCell>
        <mxCell id="gQbP0oKlp9GGneDDA7gV-79" style="edgeStyle=orthogonalEdgeStyle;rounded=0;orthogonalLoop=1;jettySize=auto;html=1;exitX=0.5;exitY=1;exitDx=0;exitDy=0;entryX=0.5;entryY=0;entryDx=0;entryDy=0;" edge="1" parent="WIyWlLk6GJQsqaUBKTNV-1" source="gQbP0oKlp9GGneDDA7gV-72" target="gQbP0oKlp9GGneDDA7gV-75">
          <mxGeometry relative="1" as="geometry" />
        </mxCell>
        <mxCell id="gQbP0oKlp9GGneDDA7gV-72" value="save credentials" style="rounded=1;whiteSpace=wrap;html=1;" vertex="1" parent="WIyWlLk6GJQsqaUBKTNV-1">
          <mxGeometry x="630" y="767.5" width="120" height="30" as="geometry" />
        </mxCell>
        <mxCell id="gQbP0oKlp9GGneDDA7gV-74" value="Return ok response" style="rounded=1;whiteSpace=wrap;html=1;" vertex="1" parent="WIyWlLk6GJQsqaUBKTNV-1">
          <mxGeometry x="350" y="900" width="120" height="30" as="geometry" />
        </mxCell>
        <mxCell id="gQbP0oKlp9GGneDDA7gV-75" value="Return ok response" style="rounded=1;whiteSpace=wrap;html=1;" vertex="1" parent="WIyWlLk6GJQsqaUBKTNV-1">
          <mxGeometry x="630" y="820" width="120" height="30" as="geometry" />
        </mxCell>
        <mxCell id="gQbP0oKlp9GGneDDA7gV-82" value="STA" style="text;html=1;strokeColor=none;fillColor=none;align=center;verticalAlign=middle;whiteSpace=wrap;rounded=0;" vertex="1" parent="WIyWlLk6GJQsqaUBKTNV-1">
          <mxGeometry x="463.75" y="750" width="60" height="30" as="geometry" />
        </mxCell>
        <mxCell id="gQbP0oKlp9GGneDDA7gV-83" value="AP" style="text;html=1;strokeColor=none;fillColor=none;align=center;verticalAlign=middle;whiteSpace=wrap;rounded=0;" vertex="1" parent="WIyWlLk6GJQsqaUBKTNV-1">
          <mxGeometry x="580" y="750" width="60" height="30" as="geometry" />
        </mxCell>
        <mxCell id="gQbP0oKlp9GGneDDA7gV-84" value="" style="rounded=0;whiteSpace=wrap;html=1;dashed=1;fillColor=#dae8fc;strokeColor=#6c8ebf;" vertex="1" parent="WIyWlLk6GJQsqaUBKTNV-1">
          <mxGeometry x="570" y="40" width="230" height="340" as="geometry" />
        </mxCell>
        <mxCell id="gQbP0oKlp9GGneDDA7gV-95" style="edgeStyle=orthogonalEdgeStyle;rounded=0;orthogonalLoop=1;jettySize=auto;html=1;exitX=0.5;exitY=1;exitDx=0;exitDy=0;entryX=0.5;entryY=0;entryDx=0;entryDy=0;" edge="1" parent="WIyWlLk6GJQsqaUBKTNV-1" source="gQbP0oKlp9GGneDDA7gV-85" target="gQbP0oKlp9GGneDDA7gV-91">
          <mxGeometry relative="1" as="geometry" />
        </mxCell>
        <mxCell id="gQbP0oKlp9GGneDDA7gV-85" value="connection&lt;br&gt;&amp;nbsp;flag enabled" style="rhombus;whiteSpace=wrap;html=1;" vertex="1" parent="WIyWlLk6GJQsqaUBKTNV-1">
          <mxGeometry x="630" y="90" width="100" height="80" as="geometry" />
        </mxCell>
        <mxCell id="gQbP0oKlp9GGneDDA7gV-86" value=".run function" style="rounded=0;whiteSpace=wrap;html=1;fillColor=#fff2cc;strokeColor=#d6b656;" vertex="1" parent="WIyWlLk6GJQsqaUBKTNV-1">
          <mxGeometry x="620" y="40" width="120" height="30" as="geometry" />
        </mxCell>
        <mxCell id="gQbP0oKlp9GGneDDA7gV-96" style="edgeStyle=orthogonalEdgeStyle;rounded=0;orthogonalLoop=1;jettySize=auto;html=1;exitX=0.5;exitY=1;exitDx=0;exitDy=0;entryX=0.5;entryY=0;entryDx=0;entryDy=0;" edge="1" parent="WIyWlLk6GJQsqaUBKTNV-1" source="gQbP0oKlp9GGneDDA7gV-91" target="gQbP0oKlp9GGneDDA7gV-92">
          <mxGeometry relative="1" as="geometry" />
        </mxCell>
        <mxCell id="gQbP0oKlp9GGneDDA7gV-91" value="stop AP server" style="rounded=1;whiteSpace=wrap;html=1;" vertex="1" parent="WIyWlLk6GJQsqaUBKTNV-1">
          <mxGeometry x="620" y="200" width="120" height="35" as="geometry" />
        </mxCell>
        <mxCell id="gQbP0oKlp9GGneDDA7gV-97" style="edgeStyle=orthogonalEdgeStyle;rounded=0;orthogonalLoop=1;jettySize=auto;html=1;exitX=0.5;exitY=1;exitDx=0;exitDy=0;entryX=0.5;entryY=0;entryDx=0;entryDy=0;" edge="1" parent="WIyWlLk6GJQsqaUBKTNV-1" source="gQbP0oKlp9GGneDDA7gV-92" target="gQbP0oKlp9GGneDDA7gV-94">
          <mxGeometry relative="1" as="geometry" />
        </mxCell>
        <mxCell id="gQbP0oKlp9GGneDDA7gV-92" value="Disable connection flag" style="rounded=1;whiteSpace=wrap;html=1;" vertex="1" parent="WIyWlLk6GJQsqaUBKTNV-1">
          <mxGeometry x="620" y="260" width="120" height="35" as="geometry" />
        </mxCell>
        <mxCell id="gQbP0oKlp9GGneDDA7gV-94" value="connect to AP" style="rounded=1;whiteSpace=wrap;html=1;" vertex="1" parent="WIyWlLk6GJQsqaUBKTNV-1">
          <mxGeometry x="620" y="320" width="120" height="30" as="geometry" />
        </mxCell>
        <mxCell id="gQbP0oKlp9GGneDDA7gV-98" value="True" style="text;html=1;strokeColor=none;fillColor=none;align=center;verticalAlign=middle;whiteSpace=wrap;rounded=0;" vertex="1" parent="WIyWlLk6GJQsqaUBKTNV-1">
          <mxGeometry x="669" y="170" width="60" height="30" as="geometry" />
        </mxCell>
        <mxCell id="gQbP0oKlp9GGneDDA7gV-101" value="ESP8266FSAutoConnect" style="rounded=0;whiteSpace=wrap;html=1;fillColor=#ffe6cc;strokeColor=#d79b00;" vertex="1" parent="WIyWlLk6GJQsqaUBKTNV-1">
          <mxGeometry y="-30" width="820" height="40" as="geometry" />
        </mxCell>
      </root>
    </mxGraphModel>
  </diagram>
</mxfile>
